<svg id="Layer_1" data-name="Layer 1" xmlns="http://www.w3.org/2000/svg" xmlns:xlink="http://www.w3.org/1999/xlink" viewBox="0 0 1920 1060.14"><defs><style>.cls-1{fill:#f0f;}.cls-2{fill:url(#radial-gradient);}.cls-3{fill:#cfffbd;}.cls-14,.cls-17,.cls-39,.cls-4{fill:#fff;}.cls-25,.cls-27,.cls-35,.cls-41,.cls-47,.cls-5,.cls-54,.cls-55{fill:none;}.cls-6{fill:#bdffff;}.cls-7{fill:#ffbff8;}.cls-8{fill:#f871ff;}.cls-9{fill:#f50;}.cls-10{fill:#333;}.cls-11{fill:url(#radial-gradient-2);}.cls-12{clip-path:url(#clip-path);}.cls-13{clip-path:url(#clip-path-2);}.cls-14,.cls-19,.cls-30{font-size:21.29px;}.cls-14,.cls-17,.cls-19,.cls-23,.cls-30,.cls-31{font-family:Poppins-Regular, Poppins;}.cls-15{fill:url(#radial-gradient-5);}.cls-16{fill:url(#radial-gradient-6);}.cls-17,.cls-23,.cls-31{font-size:14.83px;}.cls-18{clip-path:url(#clip-path-3);}.cls-19,.cls-22,.cls-23{fill:#003324;}.cls-20{fill:url(#radial-gradient-7);}.cls-21{fill:url(#radial-gradient-8);}.cls-24{clip-path:url(#clip-path-4);}.cls-25,.cls-26,.cls-35{stroke:#f0f;}.cls-25,.cls-26,.cls-27,.cls-35,.cls-39,.cls-41,.cls-47,.cls-54,.cls-55{stroke-miterlimit:10;}.cls-25,.cls-27,.cls-41,.cls-47{stroke-width:5px;}.cls-26{fill:#1b1464;}.cls-27{stroke:#fff;}.cls-28{clip-path:url(#clip-path-5);}.cls-29{clip-path:url(#clip-path-6);}.cls-30,.cls-31,.cls-43{fill:#3d6d6b;}.cls-32{clip-path:url(#clip-path-7);}.cls-33{clip-path:url(#clip-path-8);}.cls-34{clip-path:url(#clip-path-9);}.cls-35{stroke-width:2px;}.cls-36{clip-path:url(#clip-path-10);}.cls-37{clip-path:url(#clip-path-11);}.cls-38{clip-path:url(#clip-path-12);}.cls-39,.cls-47,.cls-55{stroke:#ffbff8;}.cls-40{clip-path:url(#clip-path-13);}.cls-41,.cls-54{stroke:#003324;}.cls-42{clip-path:url(#clip-path-14);}.cls-44{clip-path:url(#clip-path-15);}.cls-45{fill:#ff5100;}.cls-46{clip-path:url(#clip-path-16);}.cls-48{clip-path:url(#clip-path-17);}.cls-49{clip-path:url(#clip-path-18);}.cls-50{fill:url(#radial-gradient-9);}.cls-51{fill:url(#radial-gradient-10);}.cls-52{clip-path:url(#clip-path-19);}.cls-53{clip-path:url(#clip-path-20);}.cls-54,.cls-55{stroke-width:3px;}</style><radialGradient id="radial-gradient" cx="266.27" cy="263.23" r="1.6" gradientUnits="userSpaceOnUse"><stop offset="0" stop-color="#1b1464"/><stop offset="0.95" stop-color="#1b1464"/></radialGradient><radialGradient id="radial-gradient-2" cx="960" cy="982.03" r="778.85" gradientTransform="translate(0 156.79) scale(1 0.59)" gradientUnits="userSpaceOnUse"><stop offset="0" stop-color="#fff"/><stop offset="0.1" stop-color="#f7fcfe"/><stop offset="0.25" stop-color="#e2f4fb"/><stop offset="0.43" stop-color="#c0e6f6"/><stop offset="0.63" stop-color="#90d4f0"/><stop offset="0.85" stop-color="#54bce8"/><stop offset="1" stop-color="#29abe2"/></radialGradient><clipPath id="clip-path" transform="translate(0 -21.86)"><rect class="cls-1" x="14.46" y="29.24" width="163.92" height="354.65"/></clipPath><clipPath id="clip-path-2" transform="translate(0 -21.86)"><rect class="cls-2" x="190.46" y="28.86" width="163.92" height="354.65"/></clipPath><radialGradient id="radial-gradient-5" cx="608.61" cy="174.32" r="37.7" gradientTransform="matrix(-0.02, -1, 3.38, -0.04, -298.32, 768.63)" gradientUnits="userSpaceOnUse"><stop offset="0.27" stop-color="#1b1464"/><stop offset="0.36" stop-color="#1f1467"/><stop offset="0.46" stop-color="#2c1370"/><stop offset="0.55" stop-color="#41117e"/><stop offset="0.65" stop-color="#5f0e92"/><stop offset="0.75" stop-color="#850bac"/><stop offset="0.85" stop-color="#b307cc"/><stop offset="0.95" stop-color="#e902f0"/><stop offset="0.99" stop-color="#f0f"/></radialGradient><radialGradient id="radial-gradient-6" cx="608.61" cy="231" r="37.7" gradientTransform="matrix(-0.02, -1, 3.38, -0.04, -489.99, 827.79)" xlink:href="#radial-gradient-5"/><clipPath id="clip-path-3" transform="translate(0 -21.86)"><rect class="cls-3" x="777.46" y="21.86" width="163.92" height="354.65"/></clipPath><radialGradient id="radial-gradient-7" cx="1037.51" cy="167.32" r="37.7" gradientTransform="matrix(-0.02, -1, 3.38, -0.04, 322.76, 1190.15)" gradientUnits="userSpaceOnUse"><stop offset="0.27" stop-color="#cfffbd"/><stop offset="0.57" stop-color="#e8ffdf"/><stop offset="0.82" stop-color="#f9fff6"/><stop offset="0.99" stop-color="#fff"/></radialGradient><radialGradient id="radial-gradient-8" cx="1037.51" cy="222.32" r="37.7" gradientTransform="matrix(-0.02, -1, 3.38, -0.04, 136.78, 1247.56)" xlink:href="#radial-gradient-7"/><clipPath id="clip-path-4" transform="translate(0 -21.86)"><rect class="cls-5" x="378.43" y="536.86" width="163.92" height="354.65"/></clipPath><clipPath id="clip-path-5" transform="translate(0 -21.86)"><rect class="cls-3" x="404.46" y="30.24" width="163.92" height="354.65"/></clipPath><clipPath id="clip-path-6" transform="translate(0 -21.86)"><rect class="cls-3" x="554.46" y="536.86" width="163.92" height="354.65"/></clipPath><clipPath id="clip-path-7" transform="translate(0 -21.86)"><rect class="cls-3" x="598.46" y="21.86" width="163.92" height="354.65"/></clipPath><clipPath id="clip-path-8" transform="translate(0 -21.86)"><rect class="cls-10" x="10.46" y="536.24" width="163.92" height="354.65"/></clipPath><clipPath id="clip-path-9" transform="translate(0 -21.86)"><rect class="cls-10" x="182.46" y="534.86" width="163.92" height="354.65"/></clipPath><clipPath id="clip-path-10" transform="translate(0 -21.86)"><rect class="cls-7" x="960.46" y="538.24" width="163.92" height="354.65"/></clipPath><clipPath id="clip-path-11" transform="translate(0 -21.86)"><rect class="cls-3" x="1130.46" y="21.86" width="163.92" height="354.65"/></clipPath><clipPath id="clip-path-12" transform="translate(0 -21.86)"><rect class="cls-4" x="729.46" y="538.86" width="163.92" height="354.65"/></clipPath><clipPath id="clip-path-13" transform="translate(0 -21.86)"><rect class="cls-5" x="1530.59" y="531.74" width="163.92" height="354.65"/></clipPath><clipPath id="clip-path-14" transform="translate(0 -21.86)"><rect class="cls-6" x="1711.62" y="531.74" width="163.92" height="354.65"/></clipPath><clipPath id="clip-path-15" transform="translate(0 -21.86)"><rect class="cls-3" x="957.46" y="21.86" width="163.92" height="354.65"/></clipPath><clipPath id="clip-path-16" transform="translate(0 -21.86)"><rect class="cls-7" x="1137.46" y="541.24" width="163.92" height="354.65"/></clipPath><clipPath id="clip-path-17" transform="translate(0 -21.86)"><rect class="cls-8" x="1330.46" y="36.24" width="163.92" height="354.65"/></clipPath><clipPath id="clip-path-18" transform="translate(0 -21.86)"><rect class="cls-8" x="1703.46" y="34.86" width="163.92" height="354.65"/></clipPath><radialGradient id="radial-gradient-9" cx="1714.1" cy="180.32" r="37.7" gradientTransform="matrix(-0.02, -1, 3.38, -0.04, 1221.23, 1880.2)" gradientUnits="userSpaceOnUse"><stop offset="0.28" stop-color="#f871ff"/><stop offset="0.39" stop-color="#f875ff"/><stop offset="0.51" stop-color="#f982ff"/><stop offset="0.63" stop-color="#fa97ff"/><stop offset="0.76" stop-color="#fbb5ff"/><stop offset="0.88" stop-color="#fddaff"/><stop offset="0.98" stop-color="#fff"/></radialGradient><radialGradient id="radial-gradient-10" cx="1714.1" cy="237" r="37.7" gradientTransform="matrix(-0.02, -1, 3.38, -0.04, 1029.56, 1939.37)" gradientUnits="userSpaceOnUse"><stop offset="0.27" stop-color="#f871ff"/><stop offset="0.39" stop-color="#f875ff"/><stop offset="0.51" stop-color="#f982ff"/><stop offset="0.63" stop-color="#fa97ff"/><stop offset="0.76" stop-color="#fbb5ff"/><stop offset="0.88" stop-color="#fddaff"/><stop offset="0.99" stop-color="#fff"/></radialGradient><clipPath id="clip-path-19" transform="translate(0 -21.86)"><rect class="cls-9" x="1517.99" y="35.98" width="163.92" height="354.65"/></clipPath><clipPath id="clip-path-20" transform="translate(0 -21.86)"><rect class="cls-7" x="1318.99" y="538.98" width="163.92" height="354.65"/></clipPath></defs><rect class="cls-11" y="419.14" width="1920" height="641"/><rect class="cls-1" x="14.46" y="7.38" width="163.92" height="354.65"/><g class="cls-12"><g id="iPhone_12_Pro_Max_2" data-name="iPhone 12 Pro Max 2"><rect class="cls-1" x="14.46" y="7.38" width="163.92" height="354.65"/></g></g><rect class="cls-2" x="190.46" y="7" width="163.92" height="354.65"/><g class="cls-13"><g id="iPhone_12_Pro_Max_2-2" data-name="iPhone 12 Pro Max 2"><rect class="cls-2" x="190.46" y="7" width="163.92" height="354.65"/></g></g><text class="cls-14" transform="translate(201.05 45.87)">La oss </text><text class="cls-14" transform="translate(217.52 73.06)">regne ut </text><text class="cls-14" transform="translate(251 100.51)">ny pris!</text><rect class="cls-15" x="205.4" y="140.28" width="133.66" height="31.4" rx="15.7"/><rect class="cls-16" x="205.4" y="196.96" width="133.66" height="31.4" rx="15.7"/><rect class="cls-1" x="207.7" y="257.47" width="133.66" height="31.4" rx="15.7"/><text class="cls-17" transform="translate(248.31 217.2)">Rabatt</text><text class="cls-17" transform="translate(244.87 277.33)">Regn ut</text><text class="cls-17" transform="translate(228.78 161.67)">Original pris</text><rect class="cls-3" x="777.46" width="163.92" height="354.65"/><g class="cls-18"><g id="iPhone_12_Pro_Max_2-3" data-name="iPhone 12 Pro Max 2"><rect class="cls-3" x="777.46" width="163.92" height="354.65"/></g></g><text class="cls-19" transform="translate(788.05 38.87)">La oss </text><text class="cls-19" transform="translate(804.52 66.06)">regne ut </text><text class="cls-19" transform="translate(838 93.51)">ny pris!</text><rect class="cls-20" x="792.4" y="133.28" width="133.66" height="31.4" rx="15.7"/><rect class="cls-21" x="792.4" y="188.28" width="133.66" height="31.4" rx="15.7"/><rect class="cls-22" x="794.7" y="250.47" width="133.66" height="31.4" rx="15.7"/><text class="cls-23" transform="translate(835.31 210.2)">Rabatt</text><text class="cls-17" transform="translate(831.87 270.33)">Regn ut</text><text class="cls-23" transform="translate(815.78 154.67)">Original pris</text><g class="cls-24"><g id="iPhone_12_Pro_Max_2-4" data-name="iPhone 12 Pro Max 2"><rect class="cls-4" x="378.43" y="515" width="163.92" height="354.65"/></g></g><path class="cls-3" d="M542.35,839c-27.57-8.8-49.82-20.45-64-47.1-9.95-18.77-8.1-33.64-17.81-53-15.32-30.63-70.47-21.44-82.34-90l.38-113H542.54Z" transform="translate(0 -21.86)"/><circle class="cls-25" cx="451.2" cy="591.98" r="12.06"/><circle class="cls-25" cx="473.41" cy="633.34" r="12.06"/><path class="cls-25" d="M437.69,663.61c1.62-14.7,6.9-21.34,11.43-24.69,8-5.9,15.68-3.09,23.49-9.08,7.64-5.86,9.82-15.84,10.49-23.26" transform="translate(0 -21.86)"/><path class="cls-26" d="M178.38,331.42c-27.58-8.81-49.82-20.46-64-47.11-10-18.77-8.11-33.64-17.81-53-15.32-30.64-70.47-21.45-82.34-90l.38-113H178.57Z" transform="translate(0 -21.86)"/><circle class="cls-27" cx="90.99" cy="84.66" r="12.06"/><circle class="cls-27" cx="105.01" cy="124.18" r="12.06"/><path class="cls-27" d="M79.6,159.09c-1-14.75,3.07-22.21,6.94-26.3,6.83-7.21,14.9-5.79,21.54-13,6.5-7.1,6.9-17.32,6.26-24.73" transform="translate(0 -21.86)"/><rect class="cls-3" x="404.46" y="8.38" width="163.92" height="354.65"/><g class="cls-28"><g id="iPhone_12_Pro_Max_2-5" data-name="iPhone 12 Pro Max 2"><rect class="cls-3" x="404.46" y="8.38" width="163.92" height="354.65"/></g></g><rect class="cls-3" x="554.46" y="515" width="163.92" height="354.65"/><g class="cls-29"><g id="iPhone_12_Pro_Max_2-6" data-name="iPhone 12 Pro Max 2"><rect class="cls-3" x="554.46" y="515" width="163.92" height="354.65"/></g></g><text class="cls-30" transform="translate(569.05 555.87)">La oss </text><text class="cls-30" transform="translate(585.52 583.06)">regne ut </text><text class="cls-30" transform="translate(619 610.51)">ny pris!</text><rect class="cls-1" x="571.7" y="765.47" width="133.66" height="31.4" rx="15.7"/><rect class="cls-4" x="571.7" y="708.47" width="133.66" height="31.4" rx="15.7"/><rect class="cls-4" x="571.7" y="653.47" width="133.66" height="31.4" rx="15.7"/><text class="cls-31" transform="translate(610.31 729.2)">Rabatt</text><text class="cls-31" transform="translate(593.78 673.67)">Original pris</text><rect class="cls-3" x="598.46" width="163.92" height="354.65"/><g class="cls-32"><g id="iPhone_12_Pro_Max_2-7" data-name="iPhone 12 Pro Max 2"><rect class="cls-3" x="598.46" width="163.92" height="354.65"/></g></g><text class="cls-19" transform="translate(609.05 38.87)">La oss </text><text class="cls-19" transform="translate(625.52 66.06)">regne ut </text><text class="cls-19" transform="translate(659 93.51)">ny pris!</text><rect class="cls-22" x="615.7" y="250.47" width="133.66" height="31.4" rx="15.7"/><rect class="cls-4" x="615.7" y="193.47" width="133.66" height="31.4" rx="15.7"/><rect class="cls-4" x="615.7" y="138.47" width="133.66" height="31.4" rx="15.7"/><text class="cls-23" transform="translate(654.31 214.2)">Rabatt</text><text class="cls-17" transform="translate(652.87 270.33)">Regn ut</text><text class="cls-23" transform="translate(637.78 158.67)">Original pris</text><path class="cls-22" d="M568.38,332.42c-27.58-8.81-49.82-20.46-64-47.11-10-18.77-8.11-33.64-17.81-53-15.32-30.64-70.47-21.45-82.34-90l.38-113H568.57Z" transform="translate(0 -21.86)"/><circle class="cls-27" cx="480.99" cy="85.66" r="12.06"/><circle class="cls-27" cx="495.01" cy="125.18" r="12.06"/><path class="cls-27" d="M469.6,160.09c-1-14.75,3.07-22.21,6.94-26.3,6.83-7.21,14.9-5.79,21.54-13,6.5-7.1,6.9-17.32,6.26-24.73" transform="translate(0 -21.86)"/><rect class="cls-10" x="10.46" y="514.38" width="163.92" height="354.65"/><g class="cls-33"><g id="iPhone_12_Pro_Max_2-8" data-name="iPhone 12 Pro Max 2"><rect class="cls-10" x="10.46" y="514.38" width="163.92" height="354.65"/></g></g><rect class="cls-10" x="182.46" y="513" width="163.92" height="354.65"/><g class="cls-34"><g id="iPhone_12_Pro_Max_2-9" data-name="iPhone 12 Pro Max 2"><rect class="cls-10" x="182.46" y="513" width="163.92" height="354.65"/></g></g><text class="cls-14" transform="translate(193.05 551.87)">La oss </text><text class="cls-14" transform="translate(209.52 579.06)">regne ut </text><text class="cls-14" transform="translate(243 606.51)">ny pris!</text><rect class="cls-1" x="199.7" y="763.47" width="133.66" height="31.4" rx="15.7"/><rect class="cls-35" x="199.7" y="651.47" width="133.66" height="31.4" rx="15.7"/><rect class="cls-35" x="199.7" y="704.47" width="133.66" height="31.4" rx="15.7"/><text class="cls-17" transform="translate(238.31 727.2)">Rabatt</text><text class="cls-17" transform="translate(236.87 783.33)">Regn ut</text><text class="cls-17" transform="translate(220.78 671.67)">Original pris</text><path class="cls-1" d="M174.38,838.42c-27.58-8.81-49.82-20.46-64-47.11-10-18.77-8.11-33.64-17.81-53-15.32-30.64-70.47-21.45-82.34-90l.38-113H174.57Z" transform="translate(0 -21.86)"/><circle class="cls-27" cx="86.99" cy="591.66" r="12.06"/><circle class="cls-27" cx="101.01" cy="631.18" r="12.06"/><path class="cls-27" d="M75.6,666.09c-1-14.75,3.07-22.21,6.94-26.3,6.83-7.21,14.9-5.79,21.54-13,6.5-7.1,6.9-17.32,6.26-24.73" transform="translate(0 -21.86)"/><rect class="cls-7" x="960.46" y="516.38" width="163.92" height="354.65"/><g class="cls-36"><g id="iPhone_12_Pro_Max_2-10" data-name="iPhone 12 Pro Max 2"><rect class="cls-7" x="960.46" y="516.38" width="163.92" height="354.65"/></g></g><rect class="cls-3" x="1130.46" width="163.92" height="354.65"/><g class="cls-37"><g id="iPhone_12_Pro_Max_2-11" data-name="iPhone 12 Pro Max 2"><rect class="cls-3" x="1130.46" width="163.92" height="354.65"/></g></g><text class="cls-19" transform="translate(1141.05 38.87)">La oss </text><text class="cls-19" transform="translate(1157.52 66.06)">regne ut </text><text class="cls-19" transform="translate(1191 93.51)">ny pris!</text><rect class="cls-22" x="1147.7" y="250.47" width="133.66" height="31.4" rx="15.7"/><text class="cls-23" transform="translate(1186.31 214.2)">Rabatt</text><text class="cls-17" transform="translate(1184.87 270.33)">Regn ut</text><text class="cls-17" transform="translate(608.87 785.33)">Regn ut</text><rect class="cls-4" x="729.46" y="517" width="163.92" height="354.65"/><g class="cls-38"><g id="iPhone_12_Pro_Max_2-12" data-name="iPhone 12 Pro Max 2"><rect class="cls-4" x="729.46" y="517" width="163.92" height="354.65"/></g></g><text class="cls-19" transform="translate(744.05 557.87)">La oss </text><text class="cls-19" transform="translate(760.52 585.06)">regne ut </text><text class="cls-19" transform="translate(794 612.51)">ny pris!</text><rect class="cls-39" x="744.7" y="781.47" width="133.66" height="31.4" rx="15.7"/><text class="cls-23" transform="translate(780.31 802.2)">Regn ut</text><text class="cls-23" transform="translate(765.78 679.67)">Original pris</text><g class="cls-40"><g id="iPhone_12_Pro_Max_2-13" data-name="iPhone 12 Pro Max 2"><rect class="cls-4" x="1530.59" y="509.88" width="163.92" height="354.65"/></g></g><path class="cls-6" d="M1694.5,833.92c-27.57-8.81-49.81-20.46-64-47.11-10-18.77-8.1-33.64-17.8-53-15.32-30.64-70.47-21.45-82.35-90l.39-113h163.91Z" transform="translate(0 -21.86)"/><circle class="cls-41" cx="1603.35" cy="586.86" r="12.06"/><circle class="cls-41" cx="1625.57" cy="628.23" r="12.06"/><path class="cls-41" d="M1589.84,658.49c1.62-14.7,6.91-21.34,11.43-24.68,8-5.91,15.68-3.1,23.49-9.09,7.64-5.85,9.82-15.84,10.49-23.25" transform="translate(0 -21.86)"/><rect class="cls-6" x="1711.62" y="509.88" width="163.92" height="354.65"/><g class="cls-42"><g id="iPhone_12_Pro_Max_2-14" data-name="iPhone 12 Pro Max 2"><rect class="cls-6" x="1711.62" y="509.88" width="163.92" height="354.65"/></g></g><text class="cls-19" transform="translate(1726.2 550.75)">La oss </text><text class="cls-19" transform="translate(1742.67 577.94)">regne ut </text><text class="cls-19" transform="translate(1776.15 605.4)">ny pris!</text><rect class="cls-43" x="1728.85" y="760.36" width="133.66" height="31.4" rx="15.7"/><rect class="cls-4" x="1728.85" y="703.36" width="133.66" height="31.4" rx="15.7"/><rect class="cls-4" x="1728.85" y="648.36" width="133.66" height="31.4" rx="15.7"/><text class="cls-31" transform="translate(1767.47 724.08)">Rabatt</text><text class="cls-31" transform="translate(1750.93 668.55)">Original pris</text><text class="cls-17" transform="translate(1766.02 780.21)">Regn ut</text><text class="cls-23" transform="translate(1169.78 158.67)">Original pris</text><rect class="cls-3" x="957.46" width="163.92" height="354.65"/><g class="cls-44"><g id="iPhone_12_Pro_Max_2-15" data-name="iPhone 12 Pro Max 2"><rect class="cls-3" x="957.46" width="163.92" height="354.65"/></g></g><text class="cls-19" transform="translate(968.05 38.87)">La oss </text><text class="cls-19" transform="translate(984.52 66.06)">regne ut </text><text class="cls-19" transform="translate(1018 93.51)">ny pris!</text><rect class="cls-22" x="974.7" y="250.47" width="133.66" height="31.4" rx="15.7"/><rect class="cls-22" x="974.7" y="193.47" width="133.66" height="31.4" rx="15.7"/><rect class="cls-22" x="974.7" y="138.47" width="133.66" height="31.4" rx="15.7"/><text class="cls-17" transform="translate(1013.31 214.2)">Rabatt</text><text class="cls-17" transform="translate(1011.87 270.33)">Regn ut</text><text class="cls-17" transform="translate(996.78 158.67)">Original pris</text><path class="cls-45" d="M1124.38,840.42c-27.58-8.81-49.82-20.46-64-47.11-10-18.77-8.11-33.64-17.81-53-15.32-30.64-70.47-21.45-82.34-90l.38-113h163.92Z" transform="translate(0 -21.86)"/><circle class="cls-27" cx="1036.99" cy="593.66" r="12.06"/><circle class="cls-27" cx="1051.01" cy="633.18" r="12.06"/><path class="cls-27" d="M1025.6,668.09c-1-14.75,3.07-22.21,6.94-26.3,6.83-7.21,14.9-5.79,21.54-13,6.5-7.1,6.9-17.32,6.26-24.73" transform="translate(0 -21.86)"/><rect class="cls-7" x="1137.46" y="519.38" width="163.92" height="354.65"/><g class="cls-46"><g id="iPhone_12_Pro_Max_2-16" data-name="iPhone 12 Pro Max 2"><rect class="cls-7" x="1137.46" y="519.38" width="163.92" height="354.65"/></g></g><path class="cls-45" d="M1301.38,843.42c-27.58-8.81-49.82-20.46-64-47.11-10-18.77-8.11-33.64-17.81-53-15.32-30.64-70.47-21.45-82.34-90l.38-113h163.92Z" transform="translate(0 -21.86)"/><circle class="cls-47" cx="1213.99" cy="596.66" r="12.06"/><circle class="cls-47" cx="1228.01" cy="636.18" r="12.06"/><path class="cls-47" d="M1202.6,671.09c-1-14.75,3.07-22.21,6.94-26.3,6.83-7.21,14.9-5.79,21.54-13,6.5-7.1,6.9-17.32,6.26-24.73" transform="translate(0 -21.86)"/><rect class="cls-8" x="1330.46" y="14.38" width="163.92" height="354.65"/><g class="cls-48"><g id="iPhone_12_Pro_Max_2-17" data-name="iPhone 12 Pro Max 2"><rect class="cls-8" x="1330.46" y="14.38" width="163.92" height="354.65"/></g></g><rect class="cls-8" x="1703.46" y="13" width="163.92" height="354.65"/><g class="cls-49"><g id="iPhone_12_Pro_Max_2-18" data-name="iPhone 12 Pro Max 2"><rect class="cls-8" x="1703.46" y="13" width="163.92" height="354.65"/></g></g><text class="cls-14" transform="translate(1714.05 51.87)">La oss </text><text class="cls-14" transform="translate(1730.52 79.06)">regne ut </text><text class="cls-14" transform="translate(1764 106.51)">ny pris!</text><rect class="cls-50" x="1718.4" y="146.28" width="133.66" height="31.4" rx="15.7"/><rect class="cls-51" x="1718.4" y="202.96" width="133.66" height="31.4" rx="15.7"/><rect class="cls-9" x="1720.7" y="263.47" width="133.66" height="31.4" rx="15.7"/><text class="cls-17" transform="translate(1761.31 223.2)">Rabatt</text><text class="cls-17" transform="translate(1757.87 283.33)">Regn ut</text><text class="cls-17" transform="translate(1741.78 167.67)">Original pris</text><path class="cls-9" d="M1494.38,338.42c-27.58-8.81-49.82-20.46-64-47.11-10-18.77-8.11-33.64-17.81-53-15.32-30.64-70.47-21.45-82.34-90l.38-113h163.92Z" transform="translate(0 -21.86)"/><circle class="cls-27" cx="1406.99" cy="91.66" r="12.06"/><circle class="cls-27" cx="1421.01" cy="131.18" r="12.06"/><path class="cls-27" d="M1395.6,166.09c-1-14.75,3.07-22.21,6.94-26.3,6.83-7.21,14.9-5.79,21.54-13,6.5-7.1,6.9-17.32,6.26-24.73" transform="translate(0 -21.86)"/><rect class="cls-9" x="1517.99" y="14.12" width="163.92" height="354.65"/><g class="cls-52"><g id="iPhone_12_Pro_Max_2-19" data-name="iPhone 12 Pro Max 2"><rect class="cls-9" x="1517.99" y="14.12" width="163.92" height="354.65"/></g></g><text class="cls-14" transform="translate(1528.58 52.99)">La oss </text><text class="cls-14" transform="translate(1545.05 80.18)">regne ut </text><text class="cls-14" transform="translate(1578.52 107.63)">ny pris!</text><rect class="cls-8" x="1535.22" y="264.59" width="133.66" height="31.4" rx="15.7"/><rect class="cls-8" x="1535.22" y="207.59" width="133.66" height="31.4" rx="15.7"/><rect class="cls-8" x="1535.22" y="152.59" width="133.66" height="31.4" rx="15.7"/><text class="cls-17" transform="translate(1573.84 228.32)">Rabatt</text><text class="cls-17" transform="translate(1572.39 284.45)">Regn ut</text><text class="cls-17" transform="translate(1557.31 172.79)">Original pris</text><rect class="cls-7" x="1318.99" y="517.12" width="163.92" height="354.65"/><g class="cls-53"><g id="iPhone_12_Pro_Max_2-20" data-name="iPhone 12 Pro Max 2"><rect class="cls-7" x="1318.99" y="517.12" width="163.92" height="354.65"/></g></g><text class="cls-14" transform="translate(1329.58 555.99)">La oss </text><text class="cls-14" transform="translate(1346.05 583.18)">regne ut </text><text class="cls-14" transform="translate(1379.52 610.63)">ny pris!</text><rect class="cls-45" x="1336.22" y="767.59" width="133.66" height="31.4" rx="15.7"/><rect class="cls-45" x="1336.22" y="710.59" width="133.66" height="31.4" rx="15.7"/><rect class="cls-45" x="1336.22" y="655.59" width="133.66" height="31.4" rx="15.7"/><text class="cls-17" transform="translate(1374.84 731.32)">Rabatt</text><text class="cls-17" transform="translate(1373.39 787.45)">Regn ut</text><text class="cls-17" transform="translate(1358.31 675.79)">Original pris</text><line class="cls-54" x1="1151" y1="168.64" x2="1279" y2="168.64"/><line class="cls-54" x1="1151" y1="223.64" x2="1279" y2="223.64"/><line class="cls-55" x1="744" y1="686.64" x2="872" y2="686.64"/><line class="cls-55" x1="744" y1="743.64" x2="872" y2="743.64"/><text class="cls-23" transform="translate(781.31 736.2)">Rabatt</text></svg>